<?xml version="1.0" standalone="no"?>
<!DOCTYPE svg PUBLIC "-//W3C//DTD SVG 1.1//EN" "http://www.w3.org/Graphics/SVG/1.1/DTD/svg11.dtd" >
<svg xmlns="http://www.w3.org/2000/svg">
<metadata>
This is a custom SVG webfont generated by Font Squirrel.
</metadata>
<defs>
<font id="webfontMYkujsME" horiz-adv-x="500" >
<font-face units-per-em="1000" ascent="750" descent="-250" />
<missing-glyph horiz-adv-x="200" />
<glyph unicode=" "  horiz-adv-x="200" />
<glyph unicode="&#x09;" horiz-adv-x="200" />
<glyph unicode="&#xa0;" horiz-adv-x="200" />
<glyph unicode="!" horiz-adv-x="416" d="M186 192q-30 363 -30 364q0 28 66 28q31 0 42.5 -7t11.5 -20q0 -41 -54 -364v-1h-36zM202 109q28 0 44 -17t16 -43q0 -25 -16.5 -43t-40.5 -18q-62 0 -62 59q0 62 59 62z" />
<glyph unicode="&#x22;" horiz-adv-x="218" d="M51 630q16 0 24.5 -12t8.5 -27q0 -69 -25 -161q-9 -4 -13 0q-33 116 -33 158t38 42zM171 630q16 0 24.5 -12t8.5 -27q0 -67 -26 -161q-6 -3 -12 0q-33 116 -33 158t38 42z" />
<glyph unicode="#" d="M279 525l-80 -5v-110l80 5v110zM87 531l72 6v71l40 3v-71l80 5v72l40 3v-72l72 6v-20l-72 -6v-110l72 6v-20l-72 -6v-71l-40 -3v71l-80 -5v-72l-40 -3v72l-72 -6v20l72 6v110l-72 -6v20z" />
<glyph unicode="$" horiz-adv-x="574" d="M460 307q0 -26 -20.5 -51t-42.5 -25q-24 0 -38.5 15t-14.5 42q0 22 14 34t26 12q27 0 46 -22q0 46 -33.5 69t-76.5 26v-209q145 -55 145 -140q0 -27 -7.5 -51.5t-23.5 -47t-45.5 -38t-68.5 -20.5v-76h-47v74q-26 2 -51.5 9.5t-51.5 21.5t-42 39.5t-16 58.5 q0 31 20.5 48.5t41.5 17.5q23 0 41.5 -16.5t18.5 -37.5q0 -24 -12 -40t-31 -16q-32 0 -49 27q8 -41 47 -62.5t83 -23.5l-1 209q-51 23 -88.5 63t-37.5 79q0 60 31.5 100.5t93.5 50.5l-1 100h51v-98q21 -2 44 -10t45 -22t36.5 -37.5t14.5 -52.5zM271 221l-1 178 q-26 -11 -41.5 -35t-15.5 -57q0 -50 58 -86zM320 111v-181q37 11 52.5 39.5t15.5 61.5q0 45 -68 80z" />
<glyph unicode="%" d="M8 332q0 53 34.5 84t81.5 31q44 0 78.5 -29.5t34.5 -85.5q0 -44 -35 -74t-79 -30t-79.5 30t-35.5 74zM124 437q-31 0 -49 -29t-18 -76q0 -42 18.5 -67.5t47.5 -25.5t47.5 26t18.5 67q0 105 -65 105zM261 65q0 53 34.5 84t81.5 31q44 0 78.5 -29.5t34.5 -85.5 q0 -44 -35 -74.5t-79 -30.5t-79.5 30t-35.5 75zM377 170q-31 0 -49 -29t-18 -76q0 -42 18.5 -67.5t47.5 -25.5t47.5 26t18.5 67q0 105 -65 105zM422 474l31 -22l-386 -540l-31 22z" />
<glyph unicode="&#x26;" horiz-adv-x="613" d="M224 372q58 30 75 49t17 70q0 45 -20.5 71t-56.5 26q-33 0 -53.5 -31t-20.5 -74q0 -44 59 -111zM427 23l-38 42q-74 -76 -167 -76q-49 0 -93.5 14.5t-67.5 46.5q-2 2 -8.5 11t-8.5 12t-6.5 12t-6 17t-3 21t-1.5 29v1q0 54 21 88t67 70q20 14 46 29q-23 26 -40.5 65.5 t-17.5 76.5q0 42 23.5 72.5t53 43t57.5 12.5q64 0 103 -26t39 -81q0 -46 -32 -79t-104 -76q63 -86 172 -214q19 24 25 46.5t6 58.5q0 18 -12 35q-19 26 -55 26l-3 15h190l-1 -18q-51 0 -62 -11q-17 -17 -17 -49q0 -28 -19 -65t-34 -56l24 -30l5 -7q6 -7 8 -9.5t8 -9t10 -9.5 l9 -8q6 -5 11 -7.5t11 -4.5t12 -2q30 0 40 17.5t10 53.5l20 -3q0 -107 -80 -107q-66 0 -94 33zM254 30q38 0 61.5 10.5t56.5 40.5l-81 101l-78 94l-31 37q-31 -15 -49.5 -40t-23.5 -44.5t-5 -38.5q0 -45 34 -93q21 -30 52 -48.5t64 -18.5z" />
<glyph unicode="'" horiz-adv-x="200" d="M103 630q27 0 27 -39q0 -30 -7 -82.5t-14 -75.5q-1 -5 -8 -5h-7h-6q-1 0 -3 1q-4 2 -4 1q-11 117 -11 159q0 41 33 41z" />
<glyph unicode="(" horiz-adv-x="297" d="M311 716l26 -31q-12 -12 -50.5 -45.5t-65.5 -63t-44 -63.5q-25 -48 -33.5 -96t-8.5 -134q0 -197 31 -275q23 -57 63 -104t74 -73l-28 -37q-75 51 -150.5 182.5t-75.5 277.5q0 63 21.5 127.5t47.5 109.5t69 96.5t65 73.5z" />
<glyph unicode=")" horiz-adv-x="297" d="M-14 716l58 -55q23 -22 66 -73.5t69 -96.5t47.5 -109.5t21.5 -127.5q0 -146 -75.5 -277.5t-150.5 -182.5l-28 37q34 26 74 73t63 104q31 78 31 275q0 86 -8.5 134t-33.5 96q-17 34 -44 63.5t-65.5 63t-50.5 45.5z" />
<glyph unicode="*" horiz-adv-x="556" d="M241 535q16 0 26 -11t10 -25q0 -57 -26 -146q-45 101 -45 143q0 17 6 26t12.5 11t16.5 2zM248 161q-10 0 -16.5 2t-12.5 11t-6 26q0 19 9.5 55.5t19.5 63.5l9 27q1 -5 10.5 -35.5t16 -60.5t6.5 -53q0 -14 -10 -25t-26 -11zM84 433q11 18 31 18q10 0 18 -5q56 -32 115 -95 q-111 11 -148 32q-23 13 -23 30q0 8 7 20zM411 252q-11 -19 -26 -19q-11 0 -25 8q-16 9 -42.5 36t-45.5 49l-19 22l27 -6l39 -10q17 -5 40 -13.5t39 -17.5q18 -10 18 -31q0 -9 -5 -18zM95 248q-5 9 -5 18q0 21 18 31q49 28 140 51q-65 -90 -102 -111q-14 -8 -25 -8 q-15 0 -26 19zM415 441q7 -11 7 -20q0 -17 -23 -30q-16 -9 -52 -19t-65 -16l-28 -5q4 3 26 27t44 44t42 32q9 5 19 5q20 0 30 -18z" />
<glyph unicode="+" d="M225 22v179h-180v60h179v180h60v-180h180v-60h-179v-179h-60z" />
<glyph unicode="," horiz-adv-x="249" d="M114 -9q-22 0 -39 20t-17 44q0 32 21 50t44 18q24 0 46.5 -21.5t22.5 -56.5q0 -52 -34 -99t-67 -51l-6 15q24 11 47 41t24 54q-23 -14 -42 -14z" />
<glyph unicode="-" horiz-adv-x="461" d="M80 325h327l-5 -67l-330 2z" />
<glyph unicode="." horiz-adv-x="248" d="M124 128q25 0 46 -16t21 -49q0 -35 -19 -51t-48 -16q-24 0 -44 20.5t-20 46.5q0 30 20.5 47.5t43.5 17.5z" />
<glyph unicode="/" horiz-adv-x="302" d="M237 709l52 -14l-224 -837l-52 14z" />
<glyph unicode="0" d="M14 192q0 105 68 166.5t162 61.5q87 0 155 -58.5t68 -169.5q0 -87 -69 -147.5t-157 -60.5q-86 0 -156.5 59.5t-70.5 148.5zM244 399q-61 0 -97.5 -57.5t-36.5 -149.5q0 -84 37.5 -135t93.5 -51q58 0 95 52t37 134q0 207 -129 207z" />
<glyph unicode="1" d="M105 24l133 11v325l-142 -48l-8 36l240 70v-383q13 -5 68.5 -7t68.5 -4v-23q-59 4 -157 4q-139 0 -200 -7z" />
<glyph unicode="2" d="M231 416q49 0 94.5 -16.5t76 -50.5t30.5 -77t-25.5 -71.5t-94.5 -72.5q-25 -16 -60.5 -32t-58.5 -25l-23 -8h31q168 0 208 5l34 79h26l-48 -147h-369l-9 33l177 79q37 17 72.5 64.5t35.5 91.5q0 60 -25.5 93.5t-70.5 33.5q-36 0 -67.5 -21.5t-36.5 -50.5q25 -2 41.5 -16 t16.5 -41q0 -26 -19.5 -39t-43.5 -13q-21 0 -40.5 21.5t-19.5 55.5q0 43 47 84t121 41z" />
<glyph unicode="3" d="M223 120l-6 20q51 18 59 22q29 14 56.5 41.5t27.5 54.5q0 57 -30 93.5t-82 36.5q-75 0 -100 -64q25 -2 45 -18t20 -42.5t-14 -42.5t-43 -16q-32 0 -50 23t-18 53q0 44 50.5 88t117.5 44q72 0 127 -38.5t55 -91.5q0 -44 -28.5 -70.5t-89.5 -56.5q49 -11 94 -52.5t45 -97.5 q0 -105 -70 -165.5t-179 -60.5q-53 0 -106 41.5t-65 109.5l23 6q8 -52 49.5 -91.5t98.5 -39.5q74 0 111.5 54t37.5 119q0 57 -41 99t-95 42z" />
<glyph unicode="4" d="M355 -4l1 -182h-82q1 117 1 182h-235l-31 29l332 392l21 -17q-7 -229 -7 -357v-23h64q49 60 64 86l15 -12l-16 -30l-19 -36q-8 -16 -13 -33q-19 0 -42 0.5t-53 0.5zM277 300q-18 -23 -70 -84l-95 -115q-42 -53 -58 -80h221q0 242 2 279z" />
<glyph unicode="5" d="M430 321l-254 1q-45 -138 -64 -186q60 62 147 62q80 0 127.5 -51.5t47.5 -139.5q0 -87 -73.5 -155t-159.5 -68q-72 0 -125.5 41.5t-53.5 86.5q0 74 62 74q25 0 37.5 -18t12.5 -36q0 -22 -16.5 -36.5t-36.5 -16.5q4 -29 44 -50.5t78 -21.5q49 0 91 61t42 129q0 71 -26 121 t-75 50q-91 0 -132 -80q-4 0 -12 4t-13 8l-6 4l95 283l261 1l27 60h25z" />
<glyph unicode="6" d="M132 256q36 44 67 66.5t76 23.5h4q45 0 86.5 -20t71.5 -64.5t30 -104.5q0 -79 -60 -129t-153 -50q-38 0 -74 11.5t-70.5 36.5t-56 75t-21.5 119q0 36 14.5 80.5t45 91t71 85t99.5 63t124 24.5q31 0 72 -13.5t59 -30.5l-13 -18q-24 20 -62.5 32t-73.5 12q-40 0 -78 -17.5 t-72 -51t-57 -91t-29 -130.5zM260 309q-64 0 -97.5 -44t-34.5 -115q0 -61 37.5 -107.5t93.5 -46.5q50 0 79.5 46.5t29.5 113.5q0 46 -7.5 77t-23 47t-33.5 22.5t-44 6.5z" />
<glyph unicode="7" d="M434 396l26 30h22l-363 -648l-39 18l303 521q-150 4 -282 4l-15 -101l-20 8l10 171z" />
<glyph unicode="8" d="M456 156q0 -174 -214 -174q-89 0 -148.5 42.5t-59.5 129.5q0 64 61.5 106t116.5 48q-45 9 -87 44.5t-42 87.5q0 44 30 74.5t66.5 42t74.5 11.5q39 0 74 -11t62 -41.5t27 -75.5q0 -56 -44 -90.5t-93 -39.5q32 -6 70.5 -24t72 -53.5t33.5 -76.5zM345 438q0 49 -27 82.5 t-67 33.5q-39 0 -65.5 -31t-28.5 -79v-11q0 -100 89 -119q51 10 75 43.5t24 80.5zM370 160q0 68 -33.5 98.5t-89.5 41.5q-26 -4 -43 -9.5t-40 -19.5t-35 -42.5t-12 -69.5q0 -59 33.5 -108t91.5 -49q128 0 128 158z" />
<glyph unicode="9" d="M357 188q0 36 -1 56.5t-7.5 53t-18.5 50.5t-36.5 32t-59.5 14q-57 0 -83.5 -44t-26.5 -146q0 -75 26.5 -115.5t73.5 -40.5q53 0 93 38t40 102zM218 27q-71 0 -129.5 48t-58.5 130q0 96 56.5 153.5t151.5 57.5q37 0 73.5 -12.5t71 -40t55.5 -78.5t21 -120q0 -169 -90 -283 t-242 -114q-45 0 -93.5 33.5t-73.5 74.5l23 26q23 -40 70.5 -71t94.5 -31q52 0 91 19.5t61.5 47t37 72t20.5 81.5t10 88q-21 -31 -68 -56t-82 -25z" />
<glyph unicode=":" horiz-adv-x="249" d="M123 405q26 0 47.5 -15t21.5 -48q0 -35 -19 -56.5t-54 -21.5q-29 0 -45 22.5t-16 52.5t21 48t44 18zM123 120q26 0 47.5 -15t21.5 -48t-20 -51t-53 -18q-23 0 -42 21t-19 45q0 30 21 48t44 18z" />
<glyph unicode=";" horiz-adv-x="249" d="M119 -6q-22 0 -41.5 22.5t-19.5 43.5q0 30 21 48t44 18q24 0 46.5 -20.5t22.5 -54.5q0 -53 -32 -93t-66 -44v2q0 6 -7 15q24 5 46 28.5t23 47.5q-22 -13 -37 -13zM123 401q26 0 47.5 -15t21.5 -48q0 -36 -18.5 -57t-54.5 -21q-34 0 -50 21.5t-16 54.5q0 30 23 47.5 t47 17.5z" />
<glyph unicode="&#x3c;" horiz-adv-x="499" d="M388 436v-21l-218 -185v-17l207 -189v-27l-316 211v32z" />
<glyph unicode="=" d="M45 331h419v-60h-419v60zM45 181h419v-60h-419v60z" />
<glyph unicode="&#x3e;" horiz-adv-x="499" d="M61 436l327 -206v-32l-316 -201v27l207 179v17l-218 195v21z" />
<glyph unicode="?" d="M372 266l22 -14q-34 -90 -128 -90q-33 0 -68.5 27t-35.5 61t13.5 54.5t39.5 36.5q2 1 20.5 12.5t24.5 15.5l20 15q16 12 22 20l16 22q9 12 12.5 26t3.5 30q0 59 -30.5 94.5t-79.5 35.5q-33 0 -63 -32t-35 -62q63 -4 63 -52q0 -26 -16.5 -43t-46.5 -17q-32 0 -48.5 25 t-16.5 53q0 18 12 43t33 49t54.5 40.5t70.5 16.5q23 0 47 -4.5t51.5 -15.5t49 -28t35.5 -45.5t14 -64.5q0 -34 -16 -60.5t-39.5 -41t-50.5 -28.5l-52 -25q-23 -11 -39 -30t-16 -43q0 -65 53 -65q40 0 66 24t38 60zM206 36q0 26 16.5 41t42.5 15t41 -14.5t15 -41t-16.5 -42 t-42.5 -15.5t-41 15t-15 42z" />
<glyph unicode="@" horiz-adv-x="594" d="M445 2l-70 -9q6 37 13 73q-1 -1 -9 -11t-12 -14l-13 -13q-10 -9 -18 -14l-18 -10q-10 -6 -21.5 -8.5t-24.5 -2.5q-45 0 -73 33.5t-28 94.5q0 46 16 81.5t40.5 54t47.5 27t42 8.5q63 0 97 -29l4 29h67q-10 -69 -32 -258q34 4 63.5 39t29.5 105q0 28 -2 48.5t-13.5 53 t-32 53.5t-62 37t-99.5 16q-57 0 -101 -24t-69 -62.5t-37.5 -80.5t-12.5 -85q0 -54 7.5 -93.5t27.5 -74.5t60.5 -53.5t100.5 -18.5q18 0 33.5 1.5t28.5 4.5l23 7q11 3 21.5 10t16.5 10.5t15 12t12.5 11.5t11.5 12t10 11l20 -28q-4 -3 -28.5 -24.5t-37.5 -28.5t-48 -16 t-80 -9q-115 0 -188.5 74t-73.5 178q0 89 44.5 156.5t111.5 99.5t142 32q112 0 169.5 -69.5t57.5 -158.5q0 -56 -41 -114t-88 -64zM393 96l20 146q-51 33 -90 33q-30 0 -53 -40.5t-23 -102.5q0 -49 11.5 -70t42.5 -21q28 0 54.5 17.5t37.5 37.5z" />
<glyph unicode="A" horiz-adv-x="690" d="M419 270h-196l-93 -218q-3 -5 -3 -10q0 -14 21.5 -22t42.5 -8l1 -16l-192 -1v20h2q19 0 40 8t34 23q12 14 76 157l124 278l59 136h32l214 -507q13 -30 25 -48t18.5 -23t16.5 -10q9 -4 18.5 -5.5t18.5 -1.5t12 -1l-2 -24q-65 3 -147 3q-74 0 -120 -3l1 19q7 -1 17 -1 q35 0 49 16q7 8 7 22q0 9 -3 19l-5 18l-3 6zM234 293h177l-87 211z" />
<glyph unicode="B" horiz-adv-x="570" d="M230 602v-266l64 4q26 2 44.5 11.5t28.5 22t16 31t7.5 32t1.5 30.5q0 39 -20 76.5t-55 54.5q-13 6 -36 6q-8 0 -25.5 -1t-25.5 -1zM524 158q0 -26 -12 -53t-36 -52t-68 -40.5t-101 -15.5q-7 0 -39.5 0.5t-90 1t-124.5 0.5v16q8 1 19.5 3t32.5 10t23 19v189v203v140 q-1 8 -16.5 15t-30.5 10l-15 3v17q58 0 141.5 -0.5t107.5 -0.5q37 0 74 -17.5t64 -54t27 -82.5v-2q-1 -52 -36.5 -95.5t-98.5 -45.5q179 -17 179 -168zM228 310l1 -244q0 -32 9.5 -40t33.5 -8q81 0 117.5 30.5t36.5 100.5q0 146 -133 160z" />
<glyph unicode="C" horiz-adv-x="680" d="M386 626q57 0 108 -17.5t67 -36.5q12 8 18 17t7.5 15.5t4.5 28.5h31l-3 -202h-19q-13 79 -68 123.5t-154 44.5q-96 0 -144.5 -79.5t-50.5 -213.5q0 -298 209 -298q48 0 84 13t61.5 39.5t41 53t32.5 66.5q13 -11 23 -18q-76 -184 -244 -184q-148 0 -242 84t-94 237 q0 73 22.5 131.5t57.5 94t80.5 59.5t88 33t83.5 9z" />
<glyph unicode="D" horiz-adv-x="656" d="M620 289q0 -53 -19 -103t-56 -93.5t-99.5 -69.5t-142.5 -26q-7 0 -40 0.5t-90.5 1t-124.5 0.5v16q79 7 86 45v492q-1 13 -7 22t-20 13.5t-20.5 6t-25.5 3.5v17q58 0 150.5 1t116.5 1q48 0 96 -17t93.5 -52.5t74 -102.5t28.5 -155zM514 283v6q0 77 -9.5 129t-34 92.5 t-69 59.5t-111.5 19q-29 0 -61 -3v-88v-184v-175v-73q0 -19 15 -33.5t38 -14.5q71 0 116.5 14.5t70.5 49t34.5 81t10.5 120.5z" />
<glyph unicode="E" horiz-adv-x="570" d="M501 0h-453v16q24 -1 27 -1q48 0 53 23q9 53 9 377q0 143 -4 156q-1 8 -19 14.5t-36 8.5l-17 3v17q103 -3 230.5 -3t207.5 3l3 -141h-19q-5 24 -14.5 47t-33 46t-53.5 23h-153v-266h144q45 0 49 77h23v-175h-19q-5 76 -56 76h-141v-234q0 -47 34 -47h147q25 1 49 43 t29 85h22z" />
<glyph unicode="F" horiz-adv-x="550" d="M310 -4q-49 4 -124.5 4t-137.5 -4v16q24 0 51.5 5t28.5 17q2 23 5 159.5t3 239.5q0 122 -3 138q-1 8 -19 14.5t-36 8.5l-17 3v17q102 -4 230 -4t208 4l3 -141h-19q-4 17 -10.5 34t-18 37t-30.5 32.5t-42 12.5h-153v-266h134q45 0 49 77h23v-175h-19q-2 36 -16.5 56 t-39.5 20h-131v-238q0 -44 34 -48q8 -1 21 -1l26 1v-5v-8v-6z" />
<glyph unicode="G" horiz-adv-x="730" d="M393 627q22 0 44.5 -5t42.5 -16l33 -16q12 -7 31 -20l18 -12q14 6 24.5 25.5t12.5 39.5h25l-3 -202h-30q-13 83 -60 130.5t-141 47.5q-50 0 -87.5 -16t-66 -51t-43.5 -96.5t-15 -147.5q0 -55 12 -103.5t35 -88t62.5 -63t89.5 -23.5q48 0 93.5 21t69.5 55q3 38 3 79 q0 36 -3 57q-38 22 -92 25v22h261v-22q-54 -6 -69 -25q-4 -8 -4 -86l2 -139h-17q-1 3 -2 7t-6 15t-11.5 19t-18.5 15t-27 7q-21 -32 -73.5 -57t-106.5 -25q-144 0 -235 84.5t-91 226.5q0 75 21.5 135t56 97t80.5 61.5t91.5 34.5t93.5 10z" />
<glyph unicode="H" horiz-adv-x="738" d="M500 570q0 21 -64 24l-2 14q33 -2 82 -2q99 0 153 5v-14q-70 -9 -72 -26q-1 -9 -1 -95q0 -411 6 -442q4 -22 76 -22h4l2 -13q-47 4 -123 4q-87 0 -135 -5l1 17q74 0 74 28v258h-272v-258q0 -28 74 -28l1 -16q-31 1 -75 1q-97 0 -171 -4v16h4q62 0 66 22q2 12 4 179t2 277 q0 75 -1 81q-2 8 -17.5 14.5t-29.5 8.5l-15 3v14q46 -4 117 -4q74 0 117 4v-19q-75 -5 -76 -23v-246h272z" />
<glyph unicode="I" horiz-adv-x="368" d="M239 569q0 -1 -0.5 -54.5t-1 -134t-0.5 -147.5q0 -133 2 -189q1 -28 74 -28l1 -16q-31 1 -77 1q-105 0 -179 -4v16h4q72 0 76 22q5 29 5 536q0 8 -18 14.5t-36 8.5l-18 3v14q46 -4 118 -4q75 0 118 4v-19q-68 -5 -68 -23z" />
<glyph unicode="J" horiz-adv-x="376" d="M247 569q-4 -59 -4 -310q0 -31 0.5 -83t0.5 -74q0 -91 -9.5 -146.5t-38.5 -95.5q-28 -39 -63 -54t-80 -15q-63 0 -94.5 24t-31.5 57q0 26 18 45.5t45 19.5q30 0 48 -17.5t18 -42.5q0 -39 -39 -64q13 -7 33.5 -7t40 7t27.5 19q17 27 22.5 52.5t9.5 89.5q5 90 5 332 q0 235 -4 265q-1 8 -19 14.5t-36 8.5l-17 3v14q46 -4 117 -4q74 0 117 4v-19q-51 -4 -61 -12q-4 -5 -5 -11z" />
<glyph unicode="K" horiz-adv-x="655" d="M460 532q1 3 5 12t4 12q-1 19 -17 28t-33 10l-2 14q33 -2 71 -2q67 0 121 5v-14q-53 -3 -81 -29q-26 -24 -50.5 -51t-37.5 -43l-48 -59l-50 -63l78 -106l68 -92q29 -38 75 -90q22 -25 45.5 -34t61.5 -12l-2 -19q-141 6 -142 6q-31 0 -58 -3q-123 198 -188 288l-50 -64 l-1 -183q0 -28 74 -28l1 -16q-31 1 -75 1q-97 0 -171 -4v16h4q60 0 66 22q7 29 7 389q0 138 -2 148q-2 8 -20 14.5t-35 8.5l-17 3v14q46 -4 121 -4q80 0 123 4v-19q-72 -5 -76 -23v-316q222 255 231 279z" />
<glyph unicode="L" horiz-adv-x="574" d="M239 66q0 -44 35 -44l126 -1q34 0 60 38.5t32 88.5h22l-16 -151h-450v16q4 0 10 0.5t21.5 2t27.5 4.5t22 8t11 12q5 53 5 337q0 161 -2 194q-1 9 -21.5 15.5t-40.5 8.5l-20 2v17l251 1v-15q-68 -4 -71 -29q-3 -233 -3 -281v-46q0 -27 0.5 -76.5t0.5 -101.5z" />
<glyph unicode="M" horiz-adv-x="861" d="M203 612q5 -9 46 -88l79 -151l76 -149q40 -77 53 -106l216 490l168 7v-19q-13 -1 -31 -4t-40 -11.5t-22 -19.5v-503q9 -24 29 -36q15 -8 38 -8l24 2v-18q-56 2 -132 2q-85 0 -130 -3v16q2 0 23.5 2t32.5 7t18.5 14.5t7.5 17.5v442l-229 -510h-16l-257 504v-257v-165 q0 -18 2 -24t9.5 -10.5t12.5 -9.5q21 -8 52 -8h3h3v-18q-48 3 -103 3q-62 0 -109 -4v16q71 5 90 21q5 4 8.5 10.5t4.5 11.5l1 4q2 425 2 458q-5 29 -41 49.5t-72 23.5v17z" />
<glyph unicode="N" horiz-adv-x="671" d="M651 590q-14 -1 -30.5 -3.5t-36.5 -9.5t-20 -17q-2 -32 -2 -180l2 -391h-34q-366 503 -383 521q-1 -83 -1 -136q0 -66 2.5 -126.5t2.5 -150.5v-39q0 -40 35 -40q56 0 56 -2v-18q-48 3 -108 3q-67 0 -114 -4v16h5q80 0 85 22q5 291 5 341q0 75 -2 174q-1 8 -23.5 19.5 t-44.5 19.5l-22 8v17l181 -1l122 -163l141 -183l60 -78l1 371q-1 14 -24.5 22t-55.5 8h-14l-2 22q41 -5 101 -5q56 0 118 4v-21z" />
<glyph unicode="O" horiz-adv-x="774" d="M406 8q92 0 150 83.5t58 213.5q0 154 -56.5 234t-159.5 80q-49 0 -87.5 -13.5t-73.5 -46t-54 -97.5t-19 -158q0 -35 6.5 -72t24 -78t43.5 -72.5t69.5 -52.5t98.5 -21zM406 636q35 0 73.5 -8t84 -31t80.5 -58t58.5 -96t23.5 -138q0 -75 -30 -137t-78 -100.5t-103.5 -59 t-110.5 -20.5q-147 0 -251.5 84.5t-104.5 224.5q0 80 23 141.5t59 98t85.5 59.5t95.5 31.5t95 8.5z" />
<glyph unicode="P" horiz-adv-x="549" d="M521 437q0 -73 -55.5 -116.5t-152.5 -43.5q-24 0 -42.5 2.5t-24.5 5.5l-6 3l-1 -242q0 -18 20.5 -26.5t50.5 -8.5q8 0 16 1v-15q-162 2 -267 2v16h4q73 0 76 22q3 29 3 255.5t-3 278.5q-1 9 -17.5 15.5t-33.5 8.5l-16 2v17q58 0 149 -1t115 -1q66 0 125.5 -47.5 t59.5 -127.5zM423 437q0 30 -2.5 51t-11 43.5t-27.5 36.5t-48 19q-17 3 -41 3q-9 0 -26.5 -0.5t-26.5 -0.5v-286q18 -5 66 -5q57 0 86.5 41.5t30.5 97.5z" />
<glyph unicode="Q" horiz-adv-x="722" d="M635 -136q35 0 49 21.5t14 61.5v5l28 6v-12q0 -65 -25.5 -111t-77.5 -46q-43 0 -82 16t-67 39l-54 44q-26 23 -54 39t-56 16q-21 0 -38.5 -21t-24 -39t-7.5 -26q-11 0 -18 4q0 18 12 48t30 48q11 10 35 17t47 7h1q40 0 91 -29l102 -59q51 -29 95 -29zM372 -12 q-94 0 -170 37t-121 108.5t-45 165.5q0 80 22 141t56.5 97.5t82.5 59.5t93 31t94 8q35 0 72 -8.5t80.5 -31.5t76.5 -58.5t55.5 -96t22.5 -136.5q0 -65 -28.5 -124.5t-73.5 -101.5t-102.5 -66.5t-114.5 -24.5zM376 619q-38 0 -69 -7.5t-61 -28.5t-50 -55t-32 -90.5 t-12 -131.5q0 -36 4.5 -71.5t18.5 -78t36 -74t62 -53t93 -21.5q34 0 62 5t49 13.5t37 23t26.5 28t18 35.5t11.5 39t6 44t2.5 45t0.5 47q0 58 -5.5 105t-19.5 90.5t-36.5 72.5t-58.5 46t-83 17z" />
<glyph unicode="R" horiz-adv-x="622" d="M615 -2l-177 3v8q0 36 -26 135q-45 164 -119 165l-65 1l1 -243q0 -15 1.5 -24t9.5 -16.5t23 -7.5q43 -1 43 -2l-1 -19q-55 4 -146 4q-72 0 -111 -3v17q76 0 80 22q4 16 4 34q4 99 4 249q0 224 -4 247q-2 8 -19.5 14.5t-34.5 9.5l-17 3v17q58 -2 136 -2q32 0 81 0.5 t63 0.5q37 0 74 -17t64 -53t27 -82q0 -50 -48 -90.5t-113 -42.5q30 -3 55.5 -17t41 -29.5t31.5 -45t23 -46.5l19 -52q30 -80 39 -92q21 -30 61 -32v-14zM336 586q-21 5 -54 5q-29 0 -53 -3v-255q66 -1 67 -1q55 0 83.5 38t28.5 91q0 45 -19.5 81t-52.5 44z" />
<glyph unicode="S" horiz-adv-x="574" d="M294 638q75 0 128 -56q24 3 39 41h14l-3 -189h-19q-2 14 -4 34.5t-3.5 31t-7 25t-14.5 27.5q-46 67 -132 67q-46 0 -78 -35.5t-32 -73.5q0 -41 39 -77.5t103 -59.5q89 -33 143 -85t54 -116q0 -83 -54.5 -135t-181.5 -52q-14 0 -28 2t-24.5 4t-22.5 7l-19 8q-7 3 -17.5 9 t-13.5 8.5t-12 8.5l-10 7q-20 -9 -36 -40h-21l2 178h20q17 -80 57 -124t121 -44q137 0 137 132q0 86 -145 136q-78 27 -123 77.5t-45 107.5q0 176 189 176z" />
<glyph unicode="T" horiz-adv-x="586" d="M227 36q21 27 21 56l1 499q-102 1 -103 1q-23 0 -41.5 -17.5t-28.5 -43.5t-16 -51t-7 -47h-19l4 181q109 -3 278 -3q159 0 246 3l2 -181h-19q-9 156 -81 157l-114 1l1 -499q0 -34 18 -56q15 -18 80 -18v-19h-300v19h6h6q52 0 66 18z" />
<glyph unicode="U" horiz-adv-x="745" d="M234 213q0 -53 10.5 -91.5t26 -59.5t39.5 -33t44.5 -15.5t47.5 -3.5q38 0 66 9.5t51.5 32t35.5 65t12 105.5v27v43q0 135 -4 279q-1 8 -21.5 14.5t-40.5 8.5l-20 3v14q46 -4 107 -4q64 0 107 4v-19q-46 -3 -86 -23q-3 -62 -3 -149l3 -187q0 -118 -56.5 -183t-167.5 -69 q-34 0 -67.5 6.5t-68.5 23t-61 42.5t-43 68.5t-17 96.5q0 3 1.5 31.5t3.5 82.5t2 119q0 60 -2 120q-1 8 -21.5 14.5t-40.5 8.5l-20 3v14q46 -4 128 -4q88 0 131 4v-19q-58 -5 -76 -23q-1 -64 -1 -156z" />
<glyph unicode="V" horiz-adv-x="684" d="M203 538q83 -206 178 -417q178 413 178 439q0 14 -20 21l-59 16v14q46 -4 103 -4q58 0 101 4v-19q-40 -2 -65 -17q-7 -4 -16.5 -17t-16.5 -24l-6 -11q-26 -77 -102.5 -260t-106.5 -277l-39 -1l-124 291q-76 173 -95 220q-26 66 -58 82q-24 12 -55 19v14q46 -4 140 -4 q101 0 144 4v-19q-66 -6 -72 -17q-4 -7 -6 -16.5t-2 -14.5z" />
<glyph unicode="W" horiz-adv-x="990" d="M358 -11h-38l-184 508q-24 64 -58 81q-24 12 -55 19v14q46 -4 149 -4q112 0 155 4v-19q-13 -1 -45 -9t-35 -14q-5 -11 -5 -30q0 -27 10 -57l41 -114l47 -123l35 -91q9 25 53 156t64 197l35 114l26 -1q17 -65 88 -244.5t92 -240.5q7 22 44 131l63 193q27 84 27 99 q0 14 -20 21l-59 16v14q46 -4 103 -4q58 0 101 4v-19q-40 -2 -65 -17q-7 -4 -16.5 -17t-16.5 -24l-6 -11l-56 -169l-63 -195q-28 -88 -51 -168h-33q-20 61 -50.5 137.5t-71 169t-56.5 132.5q-11 -35 -69.5 -199.5t-79.5 -239.5z" />
<glyph unicode="X" horiz-adv-x="718" d="M552 532l-145 -203q99 -154 167 -249q1 -1 3 -4q30 -42 45 -48q24 -9 71 -20v-14q-46 4 -140 4q-101 0 -144 -4v19q58 5 63 15q3 6 3 15q0 16 -5 24l-57 87l-57 85l-23 33l-131 -179q-29 -40 -29 -44q0 -19 19 -25l59 -16v-14q-46 4 -103 4q-58 0 -101 -4v19q40 2 65 17 q7 4 18 14.5t18 19.5l8 9l165 219l-163 244q-16 21 -58 48q-6 4 -19 6.5t-27.5 4.5t-16.5 2v14q46 -4 145 -4q106 0 149 4v-19q-14 -1 -36.5 -6t-25.5 -11q-3 -7 -3 -15q0 -6 1 -11t2 -8l1 -3l117 -191l89 122l52 72q7 11 7 15q0 19 -19 25l-59 16v14q46 -4 103 -4 q58 0 101 4v-19q-40 -2 -65 -17q-7 -4 -18 -14.5t-18 -19.5z" />
<glyph unicode="Y" horiz-adv-x="630" d="M279 241q-66 155 -167 295q-22 31 -44 42q-24 12 -55 19v14q46 -4 135 -4q96 0 139 4v-19q-14 -1 -36.5 -6t-25.5 -11q-4 -7 -6 -16t-3 -14v-5q66 -129 136 -246q142 253 142 267t-22 20l-59 16v14q46 -4 103 -4q58 0 101 4v-19q-40 -2 -65 -17q-7 -4 -16.5 -13.5 t-15.5 -16.5l-6 -7q-115 -199 -142 -256q0 -37 4 -248q0 -24 80 -24v-19h-266v16h11q72 0 73 22q2 114 5 212z" />
<glyph unicode="Z" horiz-adv-x="586" d="M50 7q201 300 364 586l-230 -4q-19 0 -34 -9.5t-24 -20.5t-16.5 -30.5t-10 -29t-6.5 -26.5h-19l3 141q90 -6 202 -6q88 0 256 6v-21l-293 -485q-38 -67 -38 -92q0 -10 8 -10q174 0 220 6q25 3 56 49t36 87h22l-23 -157q-112 2 -221 2q-65 0 -252 -2v16z" />
<glyph unicode="[" horiz-adv-x="276" d="M101 668h155v-22h-94v-748h94v-26h-155v796z" />
<glyph unicode="\" horiz-adv-x="302" d="M65 709l224 -837l-52 -14l-224 837z" />
<glyph unicode="]" horiz-adv-x="276" d="M186 668v-796h-155v26h94v748h-94v22h155z" />
<glyph unicode="^" horiz-adv-x="412" d="M70 442l135 148l120 -145l-13 -11l-110 101l-118 -101z" />
<glyph unicode="_" horiz-adv-x="519" d="M44 -19h424v-48h-424v48z" />
<glyph unicode="`" horiz-adv-x="412" d="M99 573l28 33l153 -140l-22 -15z" />
<glyph unicode="a" horiz-adv-x="457" d="M442 81l15 -9q-13 -79 -94 -79q-33 0 -49.5 22t-19.5 52q-20 -22 -30 -32t-38.5 -27t-56.5 -17q-49 0 -84 27.5t-35 86.5q0 26 11 46t31 32t40.5 20t48 11.5t45.5 4.5t40 1.5t24 0.5q3 33 3 72q0 93 -85 93q-29 0 -46.5 -13t-21.5 -30q28 0 28 -43q0 -26 -17.5 -37.5 t-34.5 -11.5q-19 0 -33.5 17t-14.5 38q0 36 46 70q37 28 103 28q62 0 109.5 -38t47.5 -103q0 -32 -2 -90t-2 -83q0 -65 30 -65q18 0 26.5 13t15.5 43zM290 92v115l-32 -3l-32 -4t-25.5 -4t-23.5 -6l-17 -10q-11 -7 -15 -15.5t-7.5 -20.5t-3.5 -28q0 -42 21 -61.5t53 -19.5 q51 0 82 57z" />
<glyph unicode="b" horiz-adv-x="510" d="M480 200q0 -94 -56 -152t-126 -58q-60 0 -126 72q-13 -14 -26.5 -39.5t-16.5 -29.5q-8 -1 -15 -1l-13 1q3 129 3 312q0 170 -3 277q0 17 -71 21v12q102 5 153 29l-4 -324q19 26 32 40t39.5 28.5t57.5 14.5q75 0 123.5 -50t48.5 -153zM388 203q0 30 -4.5 56.5t-14.5 53.5 t-31.5 43.5t-51.5 16.5q-26 0 -50 -19.5t-35 -38.5l-11 -19l-7 -90l3 -122l3 -6q2 -4 10 -14t17 -17.5t25.5 -14t35.5 -6.5q49 0 80 50t31 127z" />
<glyph unicode="c" horiz-adv-x="424" d="M251 405q56 0 104 -32.5t48 -80.5q0 -38 -19.5 -57.5t-38.5 -19.5q-55 0 -55 53q0 21 12.5 36t28.5 15q18 0 33 -13q-20 82 -115 82q-47 0 -79 -58t-32 -144q0 -65 34.5 -116.5t85.5 -51.5q31 0 53.5 9.5t36 29.5t17.5 29t12 29l27 -19q-15 -38 -54 -74.5t-101 -36.5 q-92 0 -145.5 56t-53.5 164q0 53 20.5 93.5t52.5 62.5t64.5 33t63.5 11z" />
<glyph unicode="d" horiz-adv-x="490" d="M439 641q-5 -165 -5 -382q0 -148 3 -227q0 -7 7.5 -11t15.5 -5.5t18 -2.5t12 -1v-12q-102 -4 -125 -10l-8 72q-21 -27 -55 -47.5t-69 -20.5q-77 0 -125 54.5t-48 141.5q0 93 54.5 152.5t139.5 59.5q22 0 40 -6t29 -15t18.5 -18t10.5 -15l3 -6v243q-4 20 -70 20l1 17 q99 0 153 19zM349 128l6 90l-4 88q-1 3 -3 8t-10.5 18t-18 23t-27 18t-37.5 8q-96 0 -96 -182q0 -173 99 -173q35 0 63 35t28 67z" />
<glyph unicode="e" horiz-adv-x="440" d="M147 227l176 1q1 17 1 31q0 30 -5 49q-8 31 -31.5 51t-58.5 20q-36 0 -57 -41t-25 -111zM146 212v-22q0 -70 26 -126.5t75 -56.5q57 0 90 33t46 69l27 -19q-15 -37 -56.5 -72t-110.5 -35q-83 0 -138 52t-55 151q0 58 19 101t50.5 66t64 33.5t66.5 10.5q53 0 98.5 -28 t58.5 -92q4 -20 4 -39q0 -11 -1 -25z" />
<glyph unicode="f" horiz-adv-x="380" d="M325 0q-58 4 -131 4t-121 -4v18q83 0 84 25l4 326h-82v22h82v21q0 243 170 243q45 0 92 -23.5t47 -61.5q0 -25 -14 -46t-42 -21q-20 0 -32.5 15t-12.5 32q0 13 9 24.5t18 15.5l9 5q-1 24 -24.5 34.5t-52.5 10.5q-43 0 -65 -34q-23 -36 -23 -123q0 -41 1 -59.5t1 -32.5h93 v-22h-93l6 -326q1 -13 15.5 -19.5t32.5 -6.5q10 0 29 1v-18z" />
<glyph unicode="g" horiz-adv-x="466" d="M432 330q-12 0 -27 18.5t-19 18.5q-24 0 -37 -15q5 -3 11.5 -9.5t18 -31t11.5 -54.5q0 -68 -50.5 -108t-105.5 -40q-19 0 -39 4.5t-31 8.5l-10 4q-39 -16 -41 -39q1 -32 64 -32q86 0 121 -7q62 -11 94 -35.5t32 -82.5q0 -73 -64 -116t-160 -43q-81 0 -120.5 30.5 t-39.5 73.5q0 35 29 58.5t84 44.5h-5h-4q-28 0 -54 20.5t-26 57.5q0 20 13 37.5t25 25t32 17.5l-6 6q-6 5 -9 8l-10 12q-7 8 -11.5 14t-10 16t-8.5 19t-5.5 20.5t-2.5 22.5q0 55 44 98t111 43q32 0 59.5 -7t39.5 -14l12 -7q45 40 78 40q46 0 46 -37q0 -40 -29 -40zM317 255 q0 58 -27 90.5t-60 32.5q-29 0 -55.5 -35t-26.5 -86q0 -55 23 -93t62 -38q36 0 60 31.5t24 97.5zM359 -115q0 56 -37.5 73.5t-140.5 17.5q-3 -1 -7.5 -3t-17 -9.5t-22 -17t-17 -27t-7.5 -37.5q0 -35 26.5 -64.5t80.5 -29.5q68 0 105 29t37 68z" />
<glyph unicode="h" horiz-adv-x="550" d="M60 620h1q79 0 141 22l-2 -342q15 24 23 34t25 28t38 26t48 8q35 0 62.5 -16.5t41 -41t20 -47t6.5 -39.5v-100v-92v-24q1 -18 61 -20h5v-16q-41 4 -105 4q-67 0 -105 -4v16h6q58 3 58 19v1v233q0 90 -67 90q-40 0 -63 -19t-54 -65v-239q0 -4 2.5 -7.5t7 -5.5t9.5 -3.5 t12.5 -2t12.5 -1t13 -0.5h11v-16q-44 4 -109 4q-62 0 -99 -4v16q18 0 40 5.5t22 14.5q0 36 1.5 151.5t1.5 181.5q0 140 -3 215q-7 7 -16.5 11t-17.5 5l-28 4v16z" />
<glyph unicode="i" horiz-adv-x="306" d="M166 626q22 0 41 -16t19 -38q0 -26 -17.5 -43t-42.5 -17q-19 0 -36.5 15.5t-17.5 38.5q0 24 17 42t37 18zM211 412q-2 -169 -2 -376q4 -20 68 -20v-16q-40 3 -106 3q-63 0 -102 -3v16q59 2 62 20v328q-30 10 -62 10v16q88 4 142 22z" />
<glyph unicode="j" horiz-adv-x="310" d="M218 412q-2 -169 -2 -426q0 -82 -50.5 -136t-99.5 -54q-32 0 -64.5 19.5t-32.5 49.5q0 38 16 56t39 18q18 0 30 -13.5t12 -30.5q0 -38 -31 -46q3 -11 16 -17.5t26 -6.5q39 0 54 28q7 13 7 133v378q-10 4 -19 5.5t-21.5 2.5t-21.5 2v16q48 0 142 22zM188 626 q19 0 34.5 -18t15.5 -36q0 -19 -16.5 -40.5t-35.5 -21.5q-29 0 -46.5 15.5t-17.5 46.5q0 24 21.5 39t44.5 15z" />
<glyph unicode="k" horiz-adv-x="521" d="M194 192l-14 -16q-2 -31 -2 -76q0 -28 1 -49q1 -12 9 -20t17.5 -10.5t42.5 -4.5v-16q-37 3 -102 3q-69 0 -116 -3v16q71 4 72 20q3 91 3 296q0 167 -3 262q-12 18 -72 20v16h5q53 0 147 22l-3 -451l98 112q14 17 14 32q0 17 -22 20q0 3 0.5 10.5t0.5 10.5h164v-19 q-81 -8 -114 -39l-78 -96q32 -33 66.5 -72.5t72.5 -78.5q39 -39 62 -54t43 -15h5v-14l-135 -2q-7 14 -20.5 32t-35.5 43l-34 40q-12 15 -39.5 45.5t-32.5 35.5z" />
<glyph unicode="l" horiz-adv-x="266" d="M190 642q-4 -94 -4 -211q0 -47 1 -175.5t1 -219.5q1 -7 11 -11t32.5 -6.5t24.5 -2.5v-16q-43 5 -103 5q-69 0 -113 -5v16q64 3 66 20q3 93 3 257q0 175 -3 291q-24 20 -66 20v16q51 3 150 22z" />
<glyph unicode="m" horiz-adv-x="794" d="M319 396q101 0 123 -94q20 31 34 48t38.5 31.5t54.5 14.5q129 0 129 -155v-200q0 -13 12 -18t31 -5.5t23 -1.5v-16q-28 3 -91 3q-67 0 -119 -3v16q64 6 64 20q1 189 1 223q0 54 -14.5 77t-52.5 23q-27 0 -52.5 -18.5t-37.5 -36.5l-12 -19v-249q0 -8 23.5 -13.5t44.5 -6.5 v-16q-41 3 -107 3q-71 0 -113 -3v16q64 3 64 20v224q0 55 -11.5 77t-48.5 22q-24 0 -56 -27.5t-46 -66.5v-229q0 -18 68 -20v-16q-55 3 -118 3q-56 0 -90 -3v16q5 0 15 0.5t17 1t14.5 2t11.5 5.5t4 11q3 130 3 203q0 81 -3 125q-1 11 -36 11q-13 0 -26 -1v16q11 -1 22 -1 q61 0 109 20l13 -104q1 2 9 14t10 14.5t9.5 13t11.5 14t11.5 11t13.5 10.5l15 7q8 4 16.5 5.5t18.5 1.5z" />
<glyph unicode="n" horiz-adv-x="562" d="M64 380q9 -1 19 -1q55 0 115 19l8 -96q62 94 132 94q33 0 59 -10.5t40.5 -26.5t24 -37.5t13 -40.5t3.5 -39v-200q0 -10 23 -18t41 -8v-16q-99 4 -122 4q-50 0 -88 -4v16q20 1 42 8.5t22 16.5q1 164 1 198q0 54 -19 87t-57 33q-31 0 -67 -30t-50 -74v-218q0 -16 68 -21 v-16q-40 3 -106 3q-63 0 -102 -3v16q20 0 41 7.5t21 17.5q2 60 2 157q0 93 -2 153q-19 10 -62 13v16z" />
<glyph unicode="o" horiz-adv-x="475" d="M258 8q53 0 82 48.5t29 140.5q0 76 -31 133.5t-82 57.5q-34 0 -58.5 -18.5t-36 -50.5t-16.5 -63t-5 -66q0 -81 31 -131.5t87 -50.5zM247 407q87 0 147.5 -60.5t60.5 -138.5q0 -95 -50.5 -160t-149.5 -65q-205 0 -205 224q0 87 60.5 143.5t136.5 56.5z" />
<glyph unicode="p" horiz-adv-x="508" d="M192 285l-8 -101l1 -119q39 -44 105 -44q41 0 62.5 44.5t21.5 123.5q0 80 -20.5 126.5t-57.5 46.5q-66 0 -104 -77zM30 389q76 0 147 18l13 -90q26 42 55.5 65.5t73.5 23.5q63 0 111 -60t48 -139q0 -86 -50 -149.5t-144 -63.5q-58 0 -100 45l1 -215q7 -11 35 -17.5 t51 -6.5l-1 -14q-49 3 -124.5 3t-113.5 -3v14q68 2 69 24q4 116 4 313q0 137 -2 217q-40 19 -73 20v15z" />
<glyph unicode="q" horiz-adv-x="508" d="M354 302q-40 81 -104 81q-39 0 -62.5 -54.5t-23.5 -136.5q0 -78 21 -123.5t61 -45.5q21 0 39 7.5t30.5 19t21 22.5t15 21.5t7.5 11.5v111zM442 396q0 -104 -2 -312t-2 -260q0 -21 70 -23v-14q-106 5 -126 5q-47 0 -89 -5l3 14q57 0 62 23l1 245q-60 -83 -131 -83 q-76 0 -122 57.5t-46 150.5q0 31 12 66t34 68t61.5 54.5t87.5 21.5q28 0 59.5 -27t51.5 -58q12 9 27.5 33t15.5 40z" />
<glyph unicode="r" horiz-adv-x="422" d="M331 406q37 0 57 -22t20 -63q0 -24 -16.5 -44.5t-37.5 -20.5q-16 0 -32.5 13.5t-17.5 32.5q0 21 28 41l-4 7q-2 5 -4 7.5t-5 5.5t-8 4.5t-12 1.5q-27 0 -52 -29.5t-36 -59.5l-11 -30l2 -209q1 -20 68 -25v-16q-41 3 -107 3q-62 0 -101 -3v16q15 1 38.5 9.5t23.5 15.5v323 q-13 8 -62 10l-2 16q56 0 132 19l11 -117q16 42 48 78t80 36z" />
<glyph unicode="s" horiz-adv-x="390" d="M194 -13q-20 0 -47 10t-45 19l-17 10l-5 -28h-18q-1 85 -2 137l16 -2q5 -48 35.5 -87.5t82.5 -39.5q92 0 92 74q0 54 -116 96q-50 18 -77 42t-27 66q0 59 40 92.5t106 33.5q28 0 51 -9.5t32 -18.5l9 -10l3 29h18l-2 -123h-17l-3 22q-1 7 -5 24t-11 26.5t-17.5 21t-28 17 t-39.5 5.5q-30 0 -49 -19.5t-19 -48.5q0 -17 7 -30t20.5 -22t26 -14.5t32 -12.5t29.5 -11q107 -48 107 -117q0 -70 -39 -101t-123 -31z" />
<glyph unicode="t" horiz-adv-x="378" d="M316 377h-103v-266q0 -42 13 -67t36 -25q25 0 42 20.5t32 61.5l21 -11q-9 -23 -15.5 -36t-19 -29.5t-31.5 -24t-45 -7.5q-59 0 -88 33q-14 15 -19.5 42t-5.5 78v231h-82v13q23 0 57 13t46 29q13 17 25.5 47.5t12.5 60.5h23q-4 -31 -4 -96v-22v-22l111 2z" />
<glyph unicode="u" horiz-adv-x="542" d="M60 386q86 0 141 10l-2 -267q2 -112 53 -112q22 0 44 13t37.5 31.5t28 37.5t18.5 32l6 13v214q-19 12 -58 12v16q92 0 144 10q-7 -118 -8 -194v-49l1 -126q12 -10 59 -11v-12q-74 -4 -133 -19l-7 107l-8 -11q-5 -7 -20.5 -25t-31.5 -31.5t-39 -24.5t-45 -11 q-67 0 -94.5 35.5t-27.5 102.5l-1 235q-16 8 -57 8v16z" />
<glyph unicode="v" horiz-adv-x="540" d="M254 386l-2 -14q-53 0 -53 -28q0 -6 3 -14l106 -260l96 260q3 8 3 15q0 11 -10 17.5t-19.5 7.5t-25.5 2l2 14q25 -3 73 -3q52 0 83 3l-2 -14q-33 0 -47.5 -11.5t-26.5 -42.5l-124 -328h-52l-152 342q-10 22 -26 30t-50 10l2 14q98 -5 133 -5q52 0 89 5z" />
<glyph unicode="w" horiz-adv-x="773" d="M459 387l21 -73l77 -244l90 261q1 4 1 8q0 16 -19.5 25.5t-37.5 10.5l2 14q33 -5 78 -5q46 0 77 5l-2 -14q-28 -2 -49 -17.5t-28 -36.5l-114 -331h-46l-107 292l-113 -292h-45l-113 324q-17 52 -95 56l2 16q65 -3 129 -3q62 0 101 3l-2 -14h-2q-15 0 -32 -11t-17 -25 q0 -3 1 -6l76 -260l96 246l22 71h49z" />
<glyph unicode="x" horiz-adv-x="528" d="M300 -2v14q16 0 28 3.5t16.5 8.5t4.5 9t-2 8t-5.5 9t-5.5 9l-76 106l-75 -93q-15 -18 -15 -33q0 -27 52 -27l-2 -14q-36 3 -87 3t-89 -3l2 14q30 0 56 15t53 46l95 109l-108 148q-5 8 -12.5 15.5t-11.5 10.5l-5 4q-14 8 -20.5 9.5t-28.5 2.5v14q47 -5 105 -5q60 0 99 5 l-2 -14q-22 0 -31.5 -6t-9.5 -13q0 -5 1.5 -10.5t3.5 -9.5l2 -3l68 -101l75 93q9 11 9 24q0 26 -46 26l2 14q34 -3 75 -3q46 0 73 3l-2 -14q-27 0 -42 -7q-19 -9 -37 -31l-95 -118l104 -142q18 -26 40 -42q26 -19 58 -20l-4 -14q-56 3 -116 3t-94 -3z" />
<glyph unicode="y" horiz-adv-x="536" d="M254 386l-2 -14q-23 0 -32.5 -5t-9.5 -20q0 -9 6 -27l98 -250l106 244q7 17 7 29q0 11 -5.5 17.5t-17.5 9t-21 3t-26 0.5l2 14q34 -4 88 -4t78 5l-2 -14q-38 0 -46 -8q-14 -13 -32 -58l-175 -418q-21 -52 -56 -82q-38 -32 -89 -32q-33 0 -64 22t-31 54q0 31 16 46t37 15 q24 0 43.5 -12t19.5 -36q0 -34 -39 -50q14 -11 41 -11q16 0 49 29q38 36 76 150l-149 345q-10 25 -34 34q-17 6 -56 10v14q42 -3 103 -3q73 0 117 3z" />
<glyph unicode="z" horiz-adv-x="455" d="M87 390l341 2l4 -20q-253 -297 -269 -345l159 3q32 1 55 33t26 90h18l-11 -153h-342l-3 40l95 112l124 148q56 67 56 68l-192 -3q-9 0 -15.5 -3.5t-11 -11.5t-7.5 -15t-5 -19.5t-2.5 -20t-2 -20.5t-1.5 -18h-21z" />
<glyph unicode="{" horiz-adv-x="276" d="M101 258h-79v38h79v372h155v-22h-94v-748h94v-26h-155v386z" />
<glyph unicode="|" horiz-adv-x="302" d="M124 717h54v-867h-54v867z" />
<glyph unicode="}" horiz-adv-x="276" d="M186 668v-372h75v-38h-75v-386h-155v26h94v748h-94v22h155z" />
<glyph unicode="&#xa3;" d="M130 71q-13 0 -23.5 -12t-10.5 -37q0 -44 48 -44q44 0 65 28q-30 36 -45 48q-21 17 -34 17zM134 212h-80v32l63 1q-10 25 -10 53q0 39 16 70t42 48.5t55.5 26.5t60.5 9q69 0 111.5 -33.5t46.5 -93.5l-32 -5q-18 101 -120 101q-45 0 -71 -28t-26 -80q0 -29 29 -66l183 3 v-39h-153q22 -25 32 -40l121 1v-39l-106 1q1 -5 1 -10q0 -15 -2 -28t-4 -21t-8 -18t-8.5 -13.5t-11 -13t-10.5 -12.5q42 -34 96 -34q44 0 73 24.5t29 69.5v8q0 4 -0.5 8.5t-0.5 5.5l31 8q0 -6 2 -17t2 -17q0 -166 -119 -166q-58 0 -146 83q-21 -25 -45 -38q-26 -14 -50 -14 q-39 0 -59.5 26.5t-20.5 50.5q0 34 22 60t64 26q49 0 99 -65q10 15 10 38q0 22 -6 35t-20 25l-160 2v32l118 1q-23 21 -38 42z" />
<glyph unicode="&#xa9;" d="M259 348q27 0 51.5 -8.5t32.5 -17.5q11 6 14 29h15l-1 -97h-15q-10 73 -103 73q-94 0 -94 -133q0 -62 21.5 -98t77.5 -36q44 0 62.5 17t35.5 56q14 -5 19 -8q-37 -88 -117 -88q-71 0 -116 40t-45 114q0 57 29 94.5t63.5 50t69.5 12.5zM248 437q97 0 165.5 -68.5 t68.5 -165.5t-68.5 -165.5t-165.5 -68.5t-165.5 68.5t-68.5 165.5t68.5 165.5t165.5 68.5zM248 413q-87 0 -148.5 -61.5t-61.5 -148.5t61.5 -148.5t148.5 -61.5t148.5 61.5t61.5 148.5t-61.5 148.5t-148.5 61.5z" />
<glyph unicode="&#xad;" horiz-adv-x="461" d="M80 325h327l-5 -67l-330 2z" />
<glyph unicode="&#xae;" d="M248 437q97 0 165.5 -68.5t68.5 -165.5t-68.5 -165.5t-165.5 -68.5t-165.5 68.5t-68.5 165.5t68.5 165.5t165.5 68.5zM248 413q-87 0 -148.5 -61.5t-61.5 -148.5t61.5 -148.5t148.5 -61.5t148.5 61.5t61.5 148.5t-61.5 148.5t-148.5 61.5zM378 54h-70q-6 57 -10 72 q-17 70 -50 71l-31 1l1 -97q0 -18 16 -23l21 -7l-1 -17q-22 2 -61 2t-62 -2v17q36 5 38 16v2q2 6 2 14v219q-1 4 -9.5 7.5t-16.5 5.5l-8 2v13q28 0 75.5 -1t58.5 -1q29 0 54.5 -20t25.5 -54q-1 -23 -24 -44.5t-54 -22.5q15 -1 25 -6t17 -15.5t10.5 -18t8.5 -24t8 -23.5 q8 -21 13 -30.5t9 -12t14 -5.5v-18zM303 274q0 25 -8.5 42.5t-25.5 17.5q-4 0 -12.5 1t-13.5 1h-13h-12v-125l31 -1q29 0 41.5 20.5t12.5 43.5z" />
<glyph unicode="&#xb4;" horiz-adv-x="412" d="M115 464l165 141l31 -46l-185 -113z" />
<glyph unicode="&#x2000;" horiz-adv-x="358" />
<glyph unicode="&#x2001;" horiz-adv-x="717" />
<glyph unicode="&#x2002;" horiz-adv-x="358" />
<glyph unicode="&#x2003;" horiz-adv-x="717" />
<glyph unicode="&#x2004;" horiz-adv-x="239" />
<glyph unicode="&#x2005;" horiz-adv-x="179" />
<glyph unicode="&#x2006;" horiz-adv-x="119" />
<glyph unicode="&#x2007;" horiz-adv-x="119" />
<glyph unicode="&#x2008;" horiz-adv-x="89" />
<glyph unicode="&#x2009;" horiz-adv-x="143" />
<glyph unicode="&#x200a;" horiz-adv-x="39" />
<glyph unicode="&#x2010;" horiz-adv-x="461" d="M80 325h327l-5 -67l-330 2z" />
<glyph unicode="&#x2011;" horiz-adv-x="461" d="M80 325h327l-5 -67l-330 2z" />
<glyph unicode="&#x2013;" horiz-adv-x="520" d="M34 240h452v-52h-452v52z" />
<glyph unicode="&#x2014;" horiz-adv-x="1020" d="M33 242h953v-52h-953v52z" />
<glyph unicode="&#x2018;" horiz-adv-x="249" d="M137 562q29 0 48.5 -22.5t19.5 -51.5q0 -33 -23.5 -53t-49.5 -20t-51 23t-25 60q0 58 37 100.5t76 47.5l8 -15q-22 -9 -51 -34.5t-31 -49.5q24 15 42 15z" />
<glyph unicode="&#x2019;" horiz-adv-x="249" d="M124 499q-29 0 -48.5 22.5t-19.5 51.5q0 33 23.5 53t49.5 20t51 -23t25 -60q0 -58 -37 -100.5t-76 -47.5l-8 15q22 9 51 34.5t31 49.5q-24 -15 -42 -15z" />
<glyph unicode="&#x201c;" horiz-adv-x="456" d="M137 562q29 0 48.5 -22.5t19.5 -51.5q0 -33 -23.5 -53t-49.5 -20t-51 23t-25 60q0 58 37 100.5t76 47.5l8 -15q-22 -9 -51 -34.5t-31 -49.5q24 15 42 15zM338 562q29 0 48.5 -22.5t19.5 -51.5q0 -33 -23.5 -53t-49.5 -20t-51 23t-25 60q0 58 37 100.5t76 47.5l8 -15 q-22 -9 -51 -34.5t-31 -49.5q24 15 42 15z" />
<glyph unicode="&#x201d;" horiz-adv-x="456" d="M325 499q-29 0 -48.5 22.5t-19.5 51.5q0 33 23.5 53t49.5 20t51 -23t25 -60q0 -58 -37 -100.5t-76 -47.5l-8 15q22 9 51 34.5t31 49.5q-24 -15 -42 -15zM124 499q-29 0 -48.5 22.5t-19.5 51.5q0 33 23.5 53t49.5 20t51 -23t25 -60q0 -58 -37 -100.5t-76 -47.5l-8 15 q22 9 51 34.5t31 49.5q-24 -15 -42 -15z" />
<glyph unicode="&#x2026;" horiz-adv-x="649" d="M513 135q28 0 52 -17t24 -53q0 -77 -73 -77q-33 0 -54 22t-21 52q0 33 23 53t49 20zM131 135q28 0 52 -17t24 -53q0 -77 -73 -77q-33 0 -54 22t-21 52q0 33 23 53t49 20zM323 135q28 0 52 -17t24 -53q0 -77 -73 -77q-33 0 -54 22t-21 52q0 33 23 53t49 20z" />
<glyph unicode="&#x202f;" horiz-adv-x="143" />
<glyph unicode="&#x205f;" horiz-adv-x="179" />
<glyph unicode="&#x2122;" horiz-adv-x="1447" d="M789 612q5 -9 46 -88l79 -151l76 -149q40 -77 53 -106l216 490l168 7v-19q-13 -1 -31 -4t-40 -11.5t-22 -19.5v-503q9 -24 29 -36q15 -8 38 -8l24 2v-18q-56 2 -132 2q-85 0 -130 -3v16q2 0 23.5 2t32.5 7t18.5 14.5t7.5 17.5v442l-229 -510h-16l-257 504v-257v-165 q0 -18 2 -24t9.5 -10.5t12.5 -9.5q21 -8 52 -8h3h3v-18q-48 3 -103 3q-62 0 -109 -4v16q71 5 90 21q5 4 8.5 10.5t4.5 11.5l1 4q2 425 2 458q-5 29 -41 49.5t-72 23.5v17zM227 36q21 27 21 56l1 499q-102 1 -103 1q-23 0 -41.5 -17.5t-28.5 -43.5t-16 -51t-7 -47h-19l4 181 q109 -3 278 -3q159 0 246 3l2 -181h-19q-9 156 -81 157l-114 1l1 -499q0 -34 18 -56q15 -18 80 -18v-19h-300v19h6h6q52 0 66 18z" />
</font>
</defs>
</svg>
